<?xml version="1.0" encoding="UTF-8"?>
<svg xmlns="http://www.w3.org/2000/svg" viewBox="0 0 1200 2440" font-family="system-ui, -apple-system, &#39;Segoe UI&#39;, Inter, sans-serif">
  <title>EpiCase Design System v1.0</title>
  <desc>Brand, palette, node icons, section icons, status icons. Ready for Tailwind 4 and React integration.</desc>

  <defs>
    
    <linearGradient id="brand-gradient" x1="0%" y1="0%" x2="100%" y2="100%">
      <stop offset="0%" stop-color="#5680E9"></stop>
      <stop offset="55%" stop-color="#5AB9EA"></stop>
      <stop offset="100%" stop-color="#8860D0"></stop>
    </linearGradient>

    <linearGradient id="brand-gradient-v" x1="0%" y1="0%" x2="0%" y2="100%">
      <stop offset="0%" stop-color="#5680E9"></stop>
      <stop offset="100%" stop-color="#8860D0"></stop>
    </linearGradient>

    <linearGradient id="bg-soft" x1="0%" y1="0%" x2="100%" y2="100%">
      <stop offset="0%" stop-color="#C1C8E4" stop-opacity="0.25"></stop>
      <stop offset="100%" stop-color="#84CEEB" stop-opacity="0.15"></stop>
    </linearGradient>

    

    
    <symbol id="logo-mark" viewBox="0 0 48 48">
      <rect width="48" height="48" rx="11" fill="url(#brand-gradient)"></rect>
      <g stroke="#FFFFFF" stroke-width="1.8" stroke-linecap="round" opacity="0.92">
        <line x1="24" y1="11" x2="11" y2="24"></line>
        <line x1="24" y1="11" x2="37" y2="24"></line>
        <line x1="11" y1="24" x2="24" y2="37"></line>
        <line x1="37" y1="24" x2="24" y2="37"></line>
        <line x1="24" y1="11" x2="24" y2="37" stroke-dasharray="2,2.5" opacity="0.55"></line>
      </g>
      <g fill="#FFFFFF">
        <circle cx="24" cy="11" r="3.6"></circle>
        <circle cx="11" cy="24" r="3.6"></circle>
        <circle cx="37" cy="24" r="3.6"></circle>
        <circle cx="24" cy="37" r="3.6"></circle>
      </g>
    </symbol>

    
    <symbol id="logo-mark-mono" viewBox="0 0 48 48">
      <rect width="48" height="48" rx="11" fill="#0F172A"></rect>
      <g stroke="#FFFFFF" stroke-width="1.8" stroke-linecap="round">
        <line x1="24" y1="11" x2="11" y2="24"></line>
        <line x1="24" y1="11" x2="37" y2="24"></line>
        <line x1="11" y1="24" x2="24" y2="37"></line>
        <line x1="37" y1="24" x2="24" y2="37"></line>
      </g>
      <g fill="#FFFFFF">
        <circle cx="24" cy="11" r="3.6"></circle>
        <circle cx="11" cy="24" r="3.6"></circle>
        <circle cx="37" cy="24" r="3.6"></circle>
        <circle cx="24" cy="37" r="3.6"></circle>
      </g>
    </symbol>

    
    <symbol id="logo-mark-outline" viewBox="0 0 48 48">
      <rect x="0.75" y="0.75" width="46.5" height="46.5" rx="10.5" fill="none" stroke="#0F172A" stroke-width="1.5"></rect>
      <g stroke="#0F172A" stroke-width="1.8" stroke-linecap="round">
        <line x1="24" y1="11" x2="11" y2="24"></line>
        <line x1="24" y1="11" x2="37" y2="24"></line>
        <line x1="11" y1="24" x2="24" y2="37"></line>
        <line x1="37" y1="24" x2="24" y2="37"></line>
      </g>
      <g fill="#0F172A">
        <circle cx="24" cy="11" r="3.2"></circle>
        <circle cx="11" cy="24" r="3.2"></circle>
        <circle cx="37" cy="24" r="3.2"></circle>
        <circle cx="24" cy="37" r="3.2"></circle>
      </g>
    </symbol>

    

    
    <symbol id="ico-node-start" viewBox="0 0 24 24">
      <circle cx="12" cy="12" r="9" fill="none" stroke="currentColor" stroke-width="1.6"></circle>
      <path d="M10 8 L16 12 L10 16 Z" fill="currentColor"></path>
    </symbol>

    
    <symbol id="ico-node-data" viewBox="0 0 24 24">
      <path d="M6 3 H15 L19 7 V20 A1 1 0 0 1 18 21 H6 A1 1 0 0 1 5 20 V4 A1 1 0 0 1 6 3 Z" fill="none" stroke="currentColor" stroke-width="1.6" stroke-linejoin="round"></path>
      <path d="M15 3 V7 H19" fill="none" stroke="currentColor" stroke-width="1.6" stroke-linejoin="round"></path>
      <line x1="8" y1="11" x2="16" y2="11" stroke="currentColor" stroke-width="1.5" stroke-linecap="round"></line>
      <line x1="8" y1="14" x2="16" y2="14" stroke="currentColor" stroke-width="1.5" stroke-linecap="round"></line>
      <line x1="8" y1="17" x2="13" y2="17" stroke="currentColor" stroke-width="1.5" stroke-linecap="round"></line>
    </symbol>

    
    <symbol id="ico-node-decision" viewBox="0 0 24 24">
      <path d="M12 3 L21 12 L12 21 L3 12 Z" fill="none" stroke="currentColor" stroke-width="1.6" stroke-linejoin="round"></path>
      <path d="M9 10 L11.5 12.5 L15.5 8.5" fill="none" stroke="currentColor" stroke-width="1.6" stroke-linecap="round" stroke-linejoin="round"></path>
    </symbol>

    
    <symbol id="ico-node-form" viewBox="0 0 24 24">
      <rect x="5" y="5" width="14" height="16" rx="1.5" fill="none" stroke="currentColor" stroke-width="1.6"></rect>
      <rect x="9" y="3" width="6" height="3.5" rx="1" fill="none" stroke="currentColor" stroke-width="1.6"></rect>
      <path d="M8.5 11.5 L10 13 L12.5 10.5" fill="none" stroke="currentColor" stroke-width="1.5" stroke-linecap="round" stroke-linejoin="round"></path>
      <line x1="13.5" y1="11.5" x2="16.5" y2="11.5" stroke="currentColor" stroke-width="1.5" stroke-linecap="round"></line>
      <path d="M8.5 16 L10 17.5 L12.5 15" fill="none" stroke="currentColor" stroke-width="1.5" stroke-linecap="round" stroke-linejoin="round"></path>
      <line x1="13.5" y1="16.5" x2="16.5" y2="16.5" stroke="currentColor" stroke-width="1.5" stroke-linecap="round"></line>
    </symbol>

    
    <symbol id="ico-node-text" viewBox="0 0 24 24">
      <path d="M4 6 A2 2 0 0 1 6 4 H18 A2 2 0 0 1 20 6 V15 A2 2 0 0 1 18 17 H11 L7 21 V17 H6 A2 2 0 0 1 4 15 Z" fill="none" stroke="currentColor" stroke-width="1.6" stroke-linejoin="round"></path>
      <circle cx="9" cy="10.5" r="1" fill="currentColor"></circle>
      <circle cx="12" cy="10.5" r="1" fill="currentColor"></circle>
      <circle cx="15" cy="10.5" r="1" fill="currentColor"></circle>
    </symbol>

    
    <symbol id="ico-node-final" viewBox="0 0 24 24">
      <line x1="6" y1="21" x2="6" y2="3" stroke="currentColor" stroke-width="1.8" stroke-linecap="round"></line>
      <path d="M6 4 H18 L15 8 L18 12 H6 Z" fill="currentColor"></path>
    </symbol>

    

    <symbol id="ico-dashboard" viewBox="0 0 24 24">
      <rect x="4" y="4" width="7" height="7" rx="1.5" fill="none" stroke="currentColor" stroke-width="1.6"></rect>
      <rect x="13" y="4" width="7" height="4" rx="1.5" fill="none" stroke="currentColor" stroke-width="1.6"></rect>
      <rect x="13" y="10" width="7" height="10" rx="1.5" fill="none" stroke="currentColor" stroke-width="1.6"></rect>
      <rect x="4" y="13" width="7" height="7" rx="1.5" fill="none" stroke="currentColor" stroke-width="1.6"></rect>
    </symbol>

    <symbol id="ico-cases" viewBox="0 0 24 24">
      <path d="M4 7 L12 3 L20 7 L12 11 Z" fill="none" stroke="currentColor" stroke-width="1.6" stroke-linejoin="round"></path>
      <path d="M4 12 L12 16 L20 12" fill="none" stroke="currentColor" stroke-width="1.6" stroke-linejoin="round"></path>
      <path d="M4 17 L12 21 L20 17" fill="none" stroke="currentColor" stroke-width="1.6" stroke-linejoin="round"></path>
    </symbol>

    <symbol id="ico-groups" viewBox="0 0 24 24">
      <circle cx="9" cy="8" r="3" fill="none" stroke="currentColor" stroke-width="1.6"></circle>
      <path d="M3 20 C3 16 5 14 9 14 C13 14 15 16 15 20" fill="none" stroke="currentColor" stroke-width="1.6" stroke-linecap="round"></path>
      <circle cx="17" cy="9" r="2.2" fill="none" stroke="currentColor" stroke-width="1.5"></circle>
      <path d="M15.5 15 C18 15 21 15.8 21 19" fill="none" stroke="currentColor" stroke-width="1.5" stroke-linecap="round"></path>
    </symbol>

    <symbol id="ico-users" viewBox="0 0 24 24">
      <circle cx="12" cy="8" r="4" fill="none" stroke="currentColor" stroke-width="1.6"></circle>
      <path d="M4 21 C4 16 7 13.5 12 13.5 C17 13.5 20 16 20 21" fill="none" stroke="currentColor" stroke-width="1.6" stroke-linecap="round"></path>
    </symbol>

    <symbol id="ico-analytics" viewBox="0 0 24 24">
      <line x1="4" y1="20" x2="20" y2="20" stroke="currentColor" stroke-width="1.6" stroke-linecap="round"></line>
      <rect x="5.5" y="12" width="3" height="7" rx="0.8" fill="currentColor"></rect>
      <rect x="10.5" y="7" width="3" height="12" rx="0.8" fill="currentColor"></rect>
      <rect x="15.5" y="10" width="3" height="9" rx="0.8" fill="currentColor"></rect>
    </symbol>

    <symbol id="ico-attempts" viewBox="0 0 24 24">
      <circle cx="12" cy="13" r="8" fill="none" stroke="currentColor" stroke-width="1.6"></circle>
      <path d="M12 8 V13 L15.5 15" fill="none" stroke="currentColor" stroke-width="1.6" stroke-linecap="round"></path>
      <line x1="9" y1="3" x2="15" y2="3" stroke="currentColor" stroke-width="1.6" stroke-linecap="round"></line>
      <line x1="12" y1="3" x2="12" y2="5" stroke="currentColor" stroke-width="1.6" stroke-linecap="round"></line>
    </symbol>

    <symbol id="ico-editor" viewBox="0 0 24 24">
      <path d="M4 20 L4 16 L16 4 L20 8 L8 20 Z" fill="none" stroke="currentColor" stroke-width="1.6" stroke-linejoin="round"></path>
      <line x1="14" y1="6" x2="18" y2="10" stroke="currentColor" stroke-width="1.6" stroke-linecap="round"></line>
    </symbol>

    <symbol id="ico-player" viewBox="0 0 24 24">
      <circle cx="12" cy="12" r="9" fill="none" stroke="currentColor" stroke-width="1.6"></circle>
      <path d="M10 8.5 L16 12 L10 15.5 Z" fill="currentColor"></path>
    </symbol>

    <symbol id="ico-admin" viewBox="0 0 24 24">
      <path d="M12 3 L20 6 V12 C20 16.5 16.5 19.5 12 21 C7.5 19.5 4 16.5 4 12 V6 Z" fill="none" stroke="currentColor" stroke-width="1.6" stroke-linejoin="round"></path>
      <circle cx="12" cy="12" r="2.5" fill="none" stroke="currentColor" stroke-width="1.5"></circle>
      <path d="M12 8.5 V7 M12 17 V15.5 M8.5 12 H7 M17 12 H15.5" stroke="currentColor" stroke-width="1.5" stroke-linecap="round"></path>
    </symbol>

    <symbol id="ico-system" viewBox="0 0 24 24">
      <rect x="4" y="4" width="16" height="6" rx="1.5" fill="none" stroke="currentColor" stroke-width="1.6"></rect>
      <rect x="4" y="14" width="16" height="6" rx="1.5" fill="none" stroke="currentColor" stroke-width="1.6"></rect>
      <circle cx="8" cy="7" r="0.9" fill="currentColor"></circle>
      <circle cx="8" cy="17" r="0.9" fill="currentColor"></circle>
      <line x1="11" y1="7" x2="17" y2="7" stroke="currentColor" stroke-width="1.5" stroke-linecap="round"></line>
      <line x1="11" y1="17" x2="17" y2="17" stroke="currentColor" stroke-width="1.5" stroke-linecap="round"></line>
    </symbol>

    <symbol id="ico-settings" viewBox="0 0 24 24">
      <path d="M12 2.5 L13.8 4.5 L16.5 4 L17 6.7 L19.5 8 L18.5 10.5 L19.5 13 L17 14.3 L16.5 17 L13.8 16.5 L12 18.5 L10.2 16.5 L7.5 17 L7 14.3 L4.5 13 L5.5 10.5 L4.5 8 L7 6.7 L7.5 4 L10.2 4.5 Z" fill="none" stroke="currentColor" stroke-width="1.5" stroke-linejoin="round"></path>
      <circle cx="12" cy="10.5" r="2.5" fill="none" stroke="currentColor" stroke-width="1.5"></circle>
    </symbol>

    <symbol id="ico-login" viewBox="0 0 24 24">
      <rect x="5" y="10" width="14" height="10" rx="1.5" fill="none" stroke="currentColor" stroke-width="1.6"></rect>
      <path d="M8 10 V7 A4 4 0 0 1 16 7 V10" fill="none" stroke="currentColor" stroke-width="1.6" stroke-linejoin="round"></path>
      <circle cx="12" cy="15" r="1.3" fill="currentColor"></circle>
    </symbol>

    <symbol id="ico-heatmap" viewBox="0 0 24 24">
      <rect x="3.5" y="3.5" width="5" height="5" rx="1" fill="currentColor" opacity="0.85"></rect>
      <rect x="9.5" y="3.5" width="5" height="5" rx="1" fill="currentColor" opacity="0.45"></rect>
      <rect x="15.5" y="3.5" width="5" height="5" rx="1" fill="currentColor" opacity="0.25"></rect>
      <rect x="3.5" y="9.5" width="5" height="5" rx="1" fill="currentColor" opacity="0.55"></rect>
      <rect x="9.5" y="9.5" width="5" height="5" rx="1" fill="currentColor" opacity="0.95"></rect>
      <rect x="15.5" y="9.5" width="5" height="5" rx="1" fill="currentColor" opacity="0.6"></rect>
      <rect x="3.5" y="15.5" width="5" height="5" rx="1" fill="currentColor" opacity="0.2"></rect>
      <rect x="9.5" y="15.5" width="5" height="5" rx="1" fill="currentColor" opacity="0.7"></rect>
      <rect x="15.5" y="15.5" width="5" height="5" rx="1" fill="currentColor" opacity="0.35"></rect>
    </symbol>

    

    <symbol id="ico-check" viewBox="0 0 24 24">
      <circle cx="12" cy="12" r="9" fill="currentColor"></circle>
      <path d="M7.5 12 L11 15.5 L16.5 9" fill="none" stroke="#FFFFFF" stroke-width="2" stroke-linecap="round" stroke-linejoin="round"></path>
    </symbol>

    <symbol id="ico-cross" viewBox="0 0 24 24">
      <circle cx="12" cy="12" r="9" fill="currentColor"></circle>
      <path d="M8.5 8.5 L15.5 15.5 M15.5 8.5 L8.5 15.5" stroke="#FFFFFF" stroke-width="2" stroke-linecap="round"></path>
    </symbol>

    <symbol id="ico-warn" viewBox="0 0 24 24">
      <path d="M12 3 L21.5 20 H2.5 Z" fill="currentColor"></path>
      <line x1="12" y1="10" x2="12" y2="14" stroke="#FFFFFF" stroke-width="2" stroke-linecap="round"></line>
      <circle cx="12" cy="17" r="1.1" fill="#FFFFFF"></circle>
    </symbol>

    <symbol id="ico-info" viewBox="0 0 24 24">
      <circle cx="12" cy="12" r="9" fill="currentColor"></circle>
      <circle cx="12" cy="8" r="1.2" fill="#FFFFFF"></circle>
      <rect x="11" y="10.5" width="2" height="7" rx="0.8" fill="#FFFFFF"></rect>
    </symbol>

    <symbol id="ico-download" viewBox="0 0 24 24">
      <path d="M12 3 V15 M7 11 L12 16 L17 11" fill="none" stroke="currentColor" stroke-width="1.7" stroke-linecap="round" stroke-linejoin="round"></path>
      <path d="M4 19 H20" stroke="currentColor" stroke-width="1.7" stroke-linecap="round"></path>
    </symbol>

    <symbol id="ico-search" viewBox="0 0 24 24">
      <circle cx="10.5" cy="10.5" r="6" fill="none" stroke="currentColor" stroke-width="1.7"></circle>
      <line x1="15" y1="15" x2="20" y2="20" stroke="currentColor" stroke-width="1.7" stroke-linecap="round"></line>
    </symbol>

    <symbol id="ico-lock" viewBox="0 0 24 24">
      <rect x="5" y="11" width="14" height="10" rx="1.5" fill="currentColor"></rect>
      <path d="M8 11 V7 A4 4 0 0 1 16 7 V11" fill="none" stroke="currentColor" stroke-width="1.7" stroke-linejoin="round"></path>
    </symbol>

    <symbol id="ico-clock" viewBox="0 0 24 24">
      <circle cx="12" cy="12" r="9" fill="none" stroke="currentColor" stroke-width="1.6"></circle>
      <path d="M12 7 V12 L15.5 14" fill="none" stroke="currentColor" stroke-width="1.6" stroke-linecap="round"></path>
    </symbol>

    
    
  </defs>

  
  <rect width="1200" height="2440" fill="#F8FAFC"></rect>

  
  <g transform="translate(0, 0)">
    <rect width="1200" height="220" fill="url(#bg-soft)"></rect>
    <g transform="translate(60, 60)">
      <use href="#logo-mark" width="88" height="88"></use>
      <text x="108" y="38" font-size="42" font-weight="800" fill="#0F172A" letter-spacing="-0.02em">EpiCase</text>
      <text x="108" y="64" font-size="14" fill="#5680E9" font-weight="600" letter-spacing="0.08em">DESIGN SYSTEM · v1.0</text>
      <text x="108" y="86" font-size="14" fill="#64748B">Платформа интерактивных эпидемиологических кейсов · ВМедА им. С.М. Кирова</text>
    </g>
    <g transform="translate(920, 70)">
      <rect width="220" height="80" rx="12" fill="#FFFFFF" stroke="#E2E8F0"></rect>
      <text x="16" y="26" class="sec-num">AT A GLANCE</text>
      <text x="16" y="48" class="label">5 brand + 6 utility colors</text>
      <text x="16" y="64" class="label">6 node · 12 section · 8 status icons</text>
    </g>
  </g>

  
  <g transform="translate(60, 260)">
    <text class="sec-num">01</text>
    <text y="22" class="sec-title">Color Palette</text>
    <text x="180" y="22" class="sec-hint">Brand tones → эмоциональная идентичность. Utility → состояния и сообщения.</text>

    
    <g transform="translate(0, 50)">
      
      <g transform="translate(0, 0)">
        <rect width="208" height="110" rx="12" fill="#5680E9"></rect>
        <text x="16" y="28" fill="#FFFFFF" font-size="11" font-weight="700" letter-spacing="0.1em">BRAND · PRIMARY</text>
        <text x="16" y="68" class="hex" fill="#FFFFFF">#5680E9</text>
        <text x="16" y="94" fill="#FFFFFF" font-size="12" opacity="0.92">--color-royal · кнопки, ссылки, активные состояния</text>
      </g>
      
      <g transform="translate(216, 0)">
        <rect width="208" height="110" rx="12" fill="#84CEEB"></rect>
        <text x="16" y="28" fill="#0F172A" font-size="11" font-weight="700" letter-spacing="0.1em">BRAND · INFO</text>
        <text x="16" y="68" class="hex" fill="#0F172A">#84CEEB</text>
        <text x="16" y="94" fill="#0F172A" font-size="12" opacity="0.75">--color-sky · информационные data-узлы, подсветка</text>
      </g>
      
      <g transform="translate(432, 0)">
        <rect width="208" height="110" rx="12" fill="#5AB9EA"></rect>
        <text x="16" y="28" fill="#FFFFFF" font-size="11" font-weight="700" letter-spacing="0.1em">BRAND · SECONDARY</text>
        <text x="16" y="68" class="hex" fill="#FFFFFF">#5AB9EA</text>
        <text x="16" y="94" fill="#FFFFFF" font-size="12" opacity="0.92">--color-cyan · hover, вторичные акценты</text>
      </g>
      
      <g transform="translate(648, 0)">
        <rect width="208" height="110" rx="12" fill="#C1C8E4"></rect>
        <text x="16" y="28" fill="#0F172A" font-size="11" font-weight="700" letter-spacing="0.1em">BRAND · SURFACE</text>
        <text x="16" y="68" class="hex" fill="#0F172A">#C1C8E4</text>
        <text x="16" y="94" fill="#0F172A" font-size="12" opacity="0.72">--color-lavender · фоны, границы, disabled</text>
      </g>
      
      <g transform="translate(864, 0)">
        <rect width="208" height="110" rx="12" fill="#8860D0"></rect>
        <text x="16" y="28" fill="#FFFFFF" font-size="11" font-weight="700" letter-spacing="0.1em">BRAND · ACCENT</text>
        <text x="16" y="68" class="hex" fill="#FFFFFF">#8860D0</text>
        <text x="16" y="94" fill="#FFFFFF" font-size="12" opacity="0.92">--color-purple · роль Admin/Teacher, CTA</text>
      </g>
    </g>

    
    <g transform="translate(0, 180)">
      <g transform="translate(0, 0)">
        <rect width="170" height="90" rx="10" fill="#10B981"></rect>
        <text x="14" y="22" fill="#FFFFFF" font-size="10" font-weight="700" letter-spacing="0.08em">SUCCESS</text>
        <text x="14" y="50" class="hex" fill="#FFFFFF">#10B981</text>
        <text x="14" y="72" fill="#FFFFFF" font-size="11" opacity="0.92">correct edge, passed</text>
      </g>
      <g transform="translate(178, 0)">
        <rect width="170" height="90" rx="10" fill="#F59E0B"></rect>
        <text x="14" y="22" fill="#FFFFFF" font-size="10" font-weight="700" letter-spacing="0.08em">WARNING</text>
        <text x="14" y="50" class="hex" fill="#FFFFFF">#F59E0B</text>
        <text x="14" y="72" fill="#FFFFFF" font-size="11" opacity="0.92">partial, time running out</text>
      </g>
      <g transform="translate(356, 0)">
        <rect width="170" height="90" rx="10" fill="#EF4444"></rect>
        <text x="14" y="22" fill="#FFFFFF" font-size="10" font-weight="700" letter-spacing="0.08em">DANGER</text>
        <text x="14" y="50" class="hex" fill="#FFFFFF">#EF4444</text>
        <text x="14" y="72" fill="#FFFFFF" font-size="11" opacity="0.92">incorrect edge, error</text>
      </g>
      <g transform="translate(534, 0)">
        <rect width="170" height="90" rx="10" fill="#0F172A"></rect>
        <text x="14" y="22" fill="#FFFFFF" font-size="10" font-weight="700" letter-spacing="0.08em">FG · DEFAULT</text>
        <text x="14" y="50" class="hex" fill="#FFFFFF">#0F172A</text>
        <text x="14" y="72" fill="#FFFFFF" font-size="11" opacity="0.75">text, icons</text>
      </g>
      <g transform="translate(712, 0)">
        <rect width="170" height="90" rx="10" fill="#64748B"></rect>
        <text x="14" y="22" fill="#FFFFFF" font-size="10" font-weight="700" letter-spacing="0.08em">FG · MUTED</text>
        <text x="14" y="50" class="hex" fill="#FFFFFF">#64748B</text>
        <text x="14" y="72" fill="#FFFFFF" font-size="11" opacity="0.92">secondary text</text>
      </g>
      <g transform="translate(890, 0)">
        <rect width="182" height="90" rx="10" fill="#FFFFFF" stroke="#E2E8F0"></rect>
        <text x="14" y="22" fill="#0F172A" font-size="10" font-weight="700" letter-spacing="0.08em">BG · SURFACE</text>
        <text x="14" y="50" class="hex" fill="#0F172A">#F8FAFC</text>
        <text x="14" y="72" fill="#64748B" font-size="11">app background</text>
      </g>
    </g>
  </g>

  
  <g transform="translate(60, 650)">
    <text class="sec-num">02</text>
    <text y="22" class="sec-title">Logo System</text>
    <text x="180" y="22" class="sec-hint">Знак — ветвящийся граф из 4 узлов. Метафора: решение, у которого несколько путей и общий финал.</text>

    <rect y="50" width="1080" height="260" rx="16" class="card"></rect>

    
    <g transform="translate(60, 100)">
      <use href="#logo-mark" width="128" height="128"></use>
      <text x="0" y="160" class="label">Primary mark</text>
      <text x="0" y="178" class="muted">128px · gradient · colored surfaces</text>
    </g>

    
    <g transform="translate(260, 130)">
      <use href="#logo-mark" width="72" height="72"></use>
      <text x="88" y="34" font-size="34" font-weight="800" fill="#0F172A" letter-spacing="-0.02em">EpiCase</text>
      <text x="88" y="58" font-size="12" fill="#64748B" font-weight="500">Interactive Educational Cases</text>
      <text x="0" y="120" class="label">Horizontal lockup</text>
      <text x="0" y="138" class="muted">Sidebar header, login page</text>
    </g>

    
    <g transform="translate(640, 100)">
      <use href="#logo-mark-mono" width="96" height="96"></use>
      <text x="0" y="128" class="label">Monochrome (dark)</text>
      <text x="0" y="146" class="muted">Print, stamps, fallback</text>
    </g>

    
    <g transform="translate(800, 100)">
      <use href="#logo-mark-outline" width="96" height="96"></use>
      <text x="0" y="128" class="label">Outline (1-color)</text>
      <text x="0" y="146" class="muted">Faxes, official forms</text>
    </g>

    
    <g transform="translate(960, 130)">
      <use href="#logo-mark" width="16" height="16" x="0" y="0"></use>
      <use href="#logo-mark" width="32" height="32" x="24" y="-8"></use>
      <use href="#logo-mark" width="48" height="48" x="64" y="-16"></use>
      <text x="0" y="48" class="label">Favicon scales</text>
      <text x="0" y="66" class="muted">16 / 32 / 48 px</text>
    </g>
  </g>

  
  <g transform="translate(60, 950)">
    <text class="sec-num">03</text>
    <text y="22" class="sec-title">Node Type Icons — для конструктора сценариев</text>
    <text x="600" y="22" class="sec-hint">Используются в NodePalette, кастомных React Flow узлах, сайдбаре инспектора.</text>

    <rect y="50" width="1080" height="220" rx="16" class="card"></rect>

    
    <g transform="translate(30, 90)">
      <rect width="160" height="140" rx="12" fill="#10B981" opacity="0.08"></rect>
      <g color="#10B981"><use href="#ico-node-start" x="60" y="24" width="40" height="40"></use></g>
      <text x="80" y="92" text-anchor="middle" font-size="13" font-weight="700" fill="#0F172A">start</text>
      <text x="80" y="110" text-anchor="middle" class="muted">стартовый узел</text>
      <text x="80" y="126" text-anchor="middle" class="token">#10B981</text>
    </g>
    
    <g transform="translate(200, 90)">
      <rect width="160" height="140" rx="12" fill="#84CEEB" opacity="0.22"></rect>
      <g color="#1E6FA8"><use href="#ico-node-data" x="60" y="24" width="40" height="40"></use></g>
      <text x="80" y="92" text-anchor="middle" font-size="13" font-weight="700" fill="#0F172A">data</text>
      <text x="80" y="110" text-anchor="middle" class="muted">данные пациента</text>
      <text x="80" y="126" text-anchor="middle" class="token">#84CEEB</text>
    </g>
    
    <g transform="translate(370, 90)">
      <rect width="160" height="140" rx="12" fill="#5680E9" opacity="0.12"></rect>
      <g color="#5680E9"><use href="#ico-node-decision" x="60" y="24" width="40" height="40"></use></g>
      <text x="80" y="92" text-anchor="middle" font-size="13" font-weight="700" fill="#0F172A">decision</text>
      <text x="80" y="110" text-anchor="middle" class="muted">ветвление</text>
      <text x="80" y="126" text-anchor="middle" class="token">#5680E9</text>
    </g>
    
    <g transform="translate(540, 90)">
      <rect width="160" height="140" rx="12" fill="#8860D0" opacity="0.12"></rect>
      <g color="#8860D0"><use href="#ico-node-form" x="60" y="24" width="40" height="40"></use></g>
      <text x="80" y="92" text-anchor="middle" font-size="13" font-weight="700" fill="#0F172A">form</text>
      <text x="80" y="110" text-anchor="middle" class="muted">бланк документа</text>
      <text x="80" y="126" text-anchor="middle" class="token">#8860D0</text>
    </g>
    
    <g transform="translate(710, 90)">
      <rect width="160" height="140" rx="12" fill="#5AB9EA" opacity="0.16"></rect>
      <g color="#1E8FC9"><use href="#ico-node-text" x="60" y="24" width="40" height="40"></use></g>
      <text x="80" y="92" text-anchor="middle" font-size="13" font-weight="700" fill="#0F172A">text_input</text>
      <text x="80" y="110" text-anchor="middle" class="muted">свободный ответ</text>
      <text x="80" y="126" text-anchor="middle" class="token">#5AB9EA</text>
    </g>
    
    <g transform="translate(880, 90)">
      <rect width="160" height="140" rx="12" fill="#64748B" opacity="0.12"></rect>
      <g color="#475569"><use href="#ico-node-final" x="60" y="24" width="40" height="40"></use></g>
      <text x="80" y="92" text-anchor="middle" font-size="13" font-weight="700" fill="#0F172A">final</text>
      <text x="80" y="110" text-anchor="middle" class="muted">итог (по result_type)</text>
      <text x="80" y="126" text-anchor="middle" class="token">varies</text>
    </g>
  </g>

  
  <g transform="translate(60, 1240)">
    <text class="sec-num">04</text>
    <text y="22" class="sec-title">Section Icons — навигация и страницы</text>
    <text x="560" y="22" class="sec-hint">Сайдбар, топбар, заголовки разделов. Наследуют currentColor — перекрашиваются под тему роли.</text>

    <rect y="50" width="1080" height="360" rx="16" class="card"></rect>

    
    <g transform="translate(30, 90)" color="#5680E9">
      <rect width="120" height="100" rx="10" fill="#FFFFFF" stroke="#E2E8F0"></rect>
      <use href="#ico-dashboard" x="44" y="18" width="32" height="32"></use>
      <text x="60" y="70" text-anchor="middle" class="label">dashboard</text>
      <text x="60" y="86" text-anchor="middle" class="muted">главная</text>
    </g>
    <g transform="translate(160, 90)" color="#5680E9">
      <rect width="120" height="100" rx="10" fill="#FFFFFF" stroke="#E2E8F0"></rect>
      <use href="#ico-cases" x="44" y="18" width="32" height="32"></use>
      <text x="60" y="70" text-anchor="middle" class="label">cases</text>
      <text x="60" y="86" text-anchor="middle" class="muted">кейсы</text>
    </g>
    <g transform="translate(290, 90)" color="#5680E9">
      <rect width="120" height="100" rx="10" fill="#FFFFFF" stroke="#E2E8F0"></rect>
      <use href="#ico-groups" x="44" y="18" width="32" height="32"></use>
      <text x="60" y="70" text-anchor="middle" class="label">groups</text>
      <text x="60" y="86" text-anchor="middle" class="muted">группы</text>
    </g>
    <g transform="translate(420, 90)" color="#5680E9">
      <rect width="120" height="100" rx="10" fill="#FFFFFF" stroke="#E2E8F0"></rect>
      <use href="#ico-users" x="44" y="18" width="32" height="32"></use>
      <text x="60" y="70" text-anchor="middle" class="label">users</text>
      <text x="60" y="86" text-anchor="middle" class="muted">пользователи</text>
    </g>
    <g transform="translate(550, 90)" color="#5680E9">
      <rect width="120" height="100" rx="10" fill="#FFFFFF" stroke="#E2E8F0"></rect>
      <use href="#ico-analytics" x="44" y="18" width="32" height="32"></use>
      <text x="60" y="70" text-anchor="middle" class="label">analytics</text>
      <text x="60" y="86" text-anchor="middle" class="muted">аналитика</text>
    </g>
    <g transform="translate(680, 90)" color="#5680E9">
      <rect width="120" height="100" rx="10" fill="#FFFFFF" stroke="#E2E8F0"></rect>
      <use href="#ico-attempts" x="44" y="18" width="32" height="32"></use>
      <text x="60" y="70" text-anchor="middle" class="label">attempts</text>
      <text x="60" y="86" text-anchor="middle" class="muted">попытки</text>
    </g>
    <g transform="translate(810, 90)" color="#8860D0">
      <rect width="120" height="100" rx="10" fill="#FFFFFF" stroke="#E2E8F0"></rect>
      <use href="#ico-heatmap" x="44" y="18" width="32" height="32"></use>
      <text x="60" y="70" text-anchor="middle" class="label">heatmap</text>
      <text x="60" y="86" text-anchor="middle" class="muted">тепловая карта</text>
    </g>
    <g transform="translate(940, 90)" color="#8860D0">
      <rect width="120" height="100" rx="10" fill="#FFFFFF" stroke="#E2E8F0"></rect>
      <use href="#ico-editor" x="44" y="18" width="32" height="32"></use>
      <text x="60" y="70" text-anchor="middle" class="label">editor</text>
      <text x="60" y="86" text-anchor="middle" class="muted">конструктор</text>
    </g>

    
    <g transform="translate(30, 210)" color="#5680E9">
      <rect width="120" height="100" rx="10" fill="#FFFFFF" stroke="#E2E8F0"></rect>
      <use href="#ico-player" x="44" y="18" width="32" height="32"></use>
      <text x="60" y="70" text-anchor="middle" class="label">player</text>
      <text x="60" y="86" text-anchor="middle" class="muted">плеер кейса</text>
    </g>
    <g transform="translate(160, 210)" color="#8860D0">
      <rect width="120" height="100" rx="10" fill="#FFFFFF" stroke="#E2E8F0"></rect>
      <use href="#ico-admin" x="44" y="18" width="32" height="32"></use>
      <text x="60" y="70" text-anchor="middle" class="label">admin</text>
      <text x="60" y="86" text-anchor="middle" class="muted">админ-панель</text>
    </g>
    <g transform="translate(290, 210)" color="#64748B">
      <rect width="120" height="100" rx="10" fill="#FFFFFF" stroke="#E2E8F0"></rect>
      <use href="#ico-system" x="44" y="18" width="32" height="32"></use>
      <text x="60" y="70" text-anchor="middle" class="label">system</text>
      <text x="60" y="86" text-anchor="middle" class="muted">система</text>
    </g>
    <g transform="translate(420, 210)" color="#64748B">
      <rect width="120" height="100" rx="10" fill="#FFFFFF" stroke="#E2E8F0"></rect>
      <use href="#ico-settings" x="44" y="18" width="32" height="32"></use>
      <text x="60" y="70" text-anchor="middle" class="label">settings</text>
      <text x="60" y="86" text-anchor="middle" class="muted">настройки</text>
    </g>
    <g transform="translate(550, 210)" color="#64748B">
      <rect width="120" height="100" rx="10" fill="#FFFFFF" stroke="#E2E8F0"></rect>
      <use href="#ico-login" x="44" y="18" width="32" height="32"></use>
      <text x="60" y="70" text-anchor="middle" class="label">login</text>
      <text x="60" y="86" text-anchor="middle" class="muted">вход</text>
    </g>
    <g transform="translate(680, 210)" color="#64748B">
      <rect width="120" height="100" rx="10" fill="#FFFFFF" stroke="#E2E8F0"></rect>
      <use href="#ico-clock" x="44" y="18" width="32" height="32"></use>
      <text x="60" y="70" text-anchor="middle" class="label">clock</text>
      <text x="60" y="86" text-anchor="middle" class="muted">таймер, дедлайн</text>
    </g>
    <g transform="translate(810, 210)" color="#5680E9">
      <rect width="120" height="100" rx="10" fill="#FFFFFF" stroke="#E2E8F0"></rect>
      <use href="#ico-search" x="44" y="18" width="32" height="32"></use>
      <text x="60" y="70" text-anchor="middle" class="label">search</text>
      <text x="60" y="86" text-anchor="middle" class="muted">поиск</text>
    </g>
    <g transform="translate(940, 210)" color="#5680E9">
      <rect width="120" height="100" rx="10" fill="#FFFFFF" stroke="#E2E8F0"></rect>
      <use href="#ico-download" x="44" y="18" width="32" height="32"></use>
      <text x="60" y="70" text-anchor="middle" class="label">download</text>
      <text x="60" y="86" text-anchor="middle" class="muted">экспорт PDF/XLSX</text>
    </g>
  </g>

  
  <g transform="translate(60, 1640)">
    <text class="sec-num">05</text>
    <text y="22" class="sec-title">Status &amp; Feedback — toast, inline, рёбра графа</text>
    <text x="680" y="22" class="sec-hint">Зелёное ребро = is_correct, красное = неверный путь, жёлтое = partial.</text>

    <rect y="50" width="1080" height="180" rx="16" class="card"></rect>

    <g transform="translate(40, 90)" color="#10B981">
      <use href="#ico-check" x="0" y="0" width="40" height="40"></use>
      <text x="56" y="18" font-size="13" font-weight="600" fill="#0F172A">success</text>
      <text x="56" y="36" class="muted">ответ верен · passed · correct edge</text>
    </g>
    <g transform="translate(320, 90)" color="#EF4444">
      <use href="#ico-cross" x="0" y="0" width="40" height="40"></use>
      <text x="56" y="18" font-size="13" font-weight="600" fill="#0F172A">error</text>
      <text x="56" y="36" class="muted">ответ неверен · 500 · failed login</text>
    </g>
    <g transform="translate(600, 90)" color="#F59E0B">
      <use href="#ico-warn" x="0" y="0" width="40" height="40"></use>
      <text x="56" y="18" font-size="13" font-weight="600" fill="#0F172A">warning</text>
      <text x="56" y="36" class="muted">partial credit · таймер истекает</text>
    </g>
    <g transform="translate(880, 90)" color="#5680E9">
      <use href="#ico-info" x="0" y="0" width="40" height="40"></use>
      <text x="56" y="18" font-size="13" font-weight="600" fill="#0F172A">info</text>
      <text x="56" y="36" class="muted">подсказка, нейтральное сообщение</text>
    </g>

    <g transform="translate(40, 148)" color="#64748B">
      <use href="#ico-lock" x="0" y="0" width="32" height="32"></use>
      <text x="44" y="22" class="muted">lock · 5 попыток</text>
    </g>
    <g transform="translate(240, 148)" color="#5680E9">
      <use href="#ico-download" x="0" y="0" width="32" height="32"></use>
      <text x="44" y="22" class="muted">download · экспорт</text>
    </g>
    <g transform="translate(440, 148)" color="#5680E9">
      <use href="#ico-search" x="0" y="0" width="32" height="32"></use>
      <text x="44" y="22" class="muted">search · фильтры</text>
    </g>
    <g transform="translate(640, 148)" color="#64748B">
      <use href="#ico-clock" x="0" y="0" width="32" height="32"></use>
      <text x="44" y="22" class="muted">clock · time_limit_min</text>
    </g>
  </g>

  
  <g transform="translate(60, 1860)">
    <text class="sec-num">06</text>
    <text y="22" class="sec-title">Graph Edge Language — цветовой код рёбер сценария</text>
    <text x="650" y="22" class="sec-hint">Для React Flow ChoiceEdge. Показывает is_correct и score_delta.</text>

    <rect y="50" width="1080" height="200" rx="16" class="card"></rect>

    
    <g transform="translate(40, 110)">
      <circle cx="0" cy="0" r="8" fill="#5680E9"></circle>
      <path d="M8 0 C 60 -30, 180 -30, 232 0" stroke="#10B981" stroke-width="2.5" fill="none" marker-end="url(#arrow-green)"></path>
      <circle cx="240" cy="0" r="8" fill="#8860D0"></circle>
      <text x="120" y="-38" text-anchor="middle" font-size="12" font-weight="600" fill="#10B981">is_correct: true · +10</text>
      <text x="120" y="38" text-anchor="middle" class="muted">зелёное · ведёт к правильному узлу</text>
    </g>

    
    <g transform="translate(380, 110)">
      <circle cx="0" cy="0" r="8" fill="#5680E9"></circle>
      <path d="M8 0 C 60 -30, 180 -30, 232 0" stroke="#EF4444" stroke-width="2.5" fill="none" stroke-dasharray="6,4" marker-end="url(#arrow-red)"></path>
      <circle cx="240" cy="0" r="8" fill="#64748B"></circle>
      <text x="120" y="-38" text-anchor="middle" font-size="12" font-weight="600" fill="#EF4444">is_correct: false · 0</text>
      <text x="120" y="38" text-anchor="middle" class="muted">красное пунктирное · ошибочный выбор</text>
    </g>

    
    <g transform="translate(720, 110)">
      <circle cx="0" cy="0" r="8" fill="#5680E9"></circle>
      <path d="M8 0 C 60 -30, 180 -30, 232 0" stroke="#F59E0B" stroke-width="2.5" fill="none" marker-end="url(#arrow-amber)"></path>
      <circle cx="240" cy="0" r="8" fill="#F59E0B"></circle>
      <text x="120" y="-38" text-anchor="middle" font-size="12" font-weight="600" fill="#F59E0B">partial · +N (частично)</text>
      <text x="120" y="38" text-anchor="middle" class="muted">жёлтое · partial_credit для form/text_input</text>
    </g>

    
    <defs>
      <marker id="arrow-green" viewBox="0 0 10 10" refX="8" refY="5" markerWidth="5" markerHeight="5" orient="auto-start-reverse">
        <path d="M0,0 L10,5 L0,10 z" fill="#10B981"></path>
      </marker>
      <marker id="arrow-red" viewBox="0 0 10 10" refX="8" refY="5" markerWidth="5" markerHeight="5" orient="auto-start-reverse">
        <path d="M0,0 L10,5 L0,10 z" fill="#EF4444"></path>
      </marker>
      <marker id="arrow-amber" viewBox="0 0 10 10" refX="8" refY="5" markerWidth="5" markerHeight="5" orient="auto-start-reverse">
        <path d="M0,0 L10,5 L0,10 z" fill="#F59E0B"></path>
      </marker>
    </defs>
  </g>

  
  <g transform="translate(60, 2100)">
    <text class="sec-num">07</text>
    <text y="22" class="sec-title">Usage · как подключить</text>

    <rect y="50" width="1080" height="280" rx="16" class="card"></rect>

    <g transform="translate(40, 90)">
      <text x="0" y="0" font-size="13" font-weight="700" fill="#0F172A">Как sprite (рекомендуется)</text>
      <text x="0" y="22" class="token">&lt;svg class=&#34;w-6 h-6 text-royal&#34;&gt;&lt;use href=&#34;/branding.svg#ico-node-decision&#34;/&gt;&lt;/svg&gt;</text>

      <text x="0" y="60" font-size="13" font-weight="700" fill="#0F172A">Tailwind 4 — @theme tokens (client/src/styles/tokens.css)</text>
      <text x="0" y="82" class="token">--color-royal: #5680E9;    --color-sky: #84CEEB;</text>
      <text x="0" y="100" class="token">--color-cyan: #5AB9EA;     --color-lavender: #C1C8E4;</text>
      <text x="0" y="118" class="token">--color-purple: #8860D0;   --color-success: #10B981;</text>
      <text x="0" y="136" class="token">--color-warning: #F59E0B;  --color-danger: #EF4444;</text>

      <text x="0" y="168" font-size="13" font-weight="700" fill="#0F172A">Использование в компонентах</text>
      <text x="0" y="190" class="token">&lt;button className=&#34;bg-royal text-white hover:bg-cyan&#34;&gt;Опубликовать&lt;/button&gt;</text>
      <text x="0" y="208" class="token">&lt;Badge variant=&#34;success&#34;&gt;passed&lt;/Badge&gt;  // green</text>
    </g>

    <g transform="translate(620, 90)">
      <text x="0" y="0" font-size="13" font-weight="700" fill="#0F172A">Node-type → class mapping</text>
      <text x="0" y="22" class="token">start     → bg-success/10 text-success</text>
      <text x="0" y="40" class="token">data      → bg-sky/20    text-slate-800</text>
      <text x="0" y="58" class="token">decision  → bg-royal/10  text-royal</text>
      <text x="0" y="76" class="token">form      → bg-purple/10 text-purple</text>
      <text x="0" y="94" class="token">text_input→ bg-cyan/15   text-slate-800</text>
      <text x="0" y="112" class="token">final     → bg-slate/10  text-slate-700</text>

      <text x="0" y="144" font-size="13" font-weight="700" fill="#0F172A">Role → accent mapping</text>
      <text x="0" y="166" class="token">student → royal (#5680E9)</text>
      <text x="0" y="184" class="token">teacher → purple (#8860D0)</text>
      <text x="0" y="202" class="token">admin   → slate-900 + purple accent</text>
    </g>
  </g>

  
  <g transform="translate(60, 2390)">
    <text font-size="11" fill="#94A3B8">EpiCase Design System v1.0 · см. design/DESIGN_SYSTEM.md · Единый источник правды по цветам, типографике, компонентам</text>
  </g>
</svg>